<mxfile host="app.diagrams.net" agent="Mozilla/5.0 (Windows NT 10.0; Win64; x64) AppleWebKit/537.36 (KHTML, like Gecko) Chrome/137.0.0.0 Safari/537.36 Edg/137.0.0.0" version="28.0.6">
  <diagram name="第 1 页" id="TKQtqlvTwD4mcy3bF1Sj">
    <mxGraphModel dx="1276" dy="835" grid="1" gridSize="10" guides="1" tooltips="1" connect="1" arrows="1" fold="1" page="1" pageScale="1" pageWidth="827" pageHeight="1169" math="0" shadow="0">
      <root>
        <mxCell id="0" />
        <mxCell id="1" parent="0" />
        <mxCell id="O7oUbsHne7BjcqXtXfIO-1" style="edgeStyle=orthogonalEdgeStyle;rounded=0;orthogonalLoop=1;jettySize=auto;html=1;" edge="1" parent="1" source="792T90WIG-p7Bz1Ce2Oh-1">
          <mxGeometry relative="1" as="geometry">
            <mxPoint x="340" y="190" as="targetPoint" />
          </mxGeometry>
        </mxCell>
        <mxCell id="792T90WIG-p7Bz1Ce2Oh-1" value="" style="rhombus;whiteSpace=wrap;html=1;" parent="1" vertex="1">
          <mxGeometry x="120" y="170" width="80" height="80" as="geometry" />
        </mxCell>
        <mxCell id="O7oUbsHne7BjcqXtXfIO-2" value="&lt;font style=&quot;font-size: 21px;&quot; face=&quot;Comic Sans MS&quot;&gt;buffer&lt;/font&gt;" style="shape=datastore;whiteSpace=wrap;html=1;fillColor=#dae8fc;strokeColor=#6c8ebf;" vertex="1" parent="1">
          <mxGeometry x="230" y="550" width="120" height="90" as="geometry" />
        </mxCell>
        <mxCell id="O7oUbsHne7BjcqXtXfIO-3" value="Process Bar" style="swimlane;childLayout=stackLayout;horizontal=1;fillColor=#d5e8d4;horizontalStack=1;resizeParent=1;resizeParentMax=0;resizeLast=0;collapsible=0;strokeColor=#82b366;stackBorder=10;stackSpacing=-12;resizable=1;align=center;points=[];whiteSpace=wrap;html=1;" vertex="1" parent="1">
          <mxGeometry x="142" y="420" width="296" height="100" as="geometry" />
        </mxCell>
        <mxCell id="O7oUbsHne7BjcqXtXfIO-4" value="&lt;font face=&quot;Comic Sans MS&quot;&gt;Step 1&lt;/font&gt;" style="shape=step;perimeter=stepPerimeter;fixedSize=1;points=[];whiteSpace=wrap;html=1;" vertex="1" parent="O7oUbsHne7BjcqXtXfIO-3">
          <mxGeometry x="10" y="33" width="100" height="57" as="geometry" />
        </mxCell>
        <mxCell id="O7oUbsHne7BjcqXtXfIO-5" value="&lt;font face=&quot;Comic Sans MS&quot;&gt;Step 2&lt;/font&gt;" style="shape=step;perimeter=stepPerimeter;fixedSize=1;points=[];whiteSpace=wrap;html=1;" vertex="1" parent="O7oUbsHne7BjcqXtXfIO-3">
          <mxGeometry x="98" y="33" width="100" height="57" as="geometry" />
        </mxCell>
        <mxCell id="O7oUbsHne7BjcqXtXfIO-6" value="&lt;font face=&quot;Comic Sans MS&quot;&gt;Step 3&lt;/font&gt;" style="shape=step;perimeter=stepPerimeter;fixedSize=1;points=[];whiteSpace=wrap;html=1;" vertex="1" parent="O7oUbsHne7BjcqXtXfIO-3">
          <mxGeometry x="186" y="33" width="100" height="57" as="geometry" />
        </mxCell>
      </root>
    </mxGraphModel>
  </diagram>
</mxfile>
